HIERARCHY
ROOT Hips
{
	OFFSET 0.000000 0.000000 0.000000
	CHANNELS 6 Xposition Yposition Zposition Zrotation Yrotation Xrotation 
	JOINT Spine1
	{
		OFFSET -0.013727 5.003763 -0.053727
		CHANNELS 3 Zrotation Yrotation Xrotation
		JOINT Spine2
		{
			OFFSET -0.000000 7.125302 -0.029825
			CHANNELS 3 Zrotation Yrotation Xrotation
			JOINT Chest
			{
				OFFSET -0.000001 7.550062 -0.815971
				CHANNELS 3 Zrotation Yrotation Xrotation
				JOINT Neck1
				{
					OFFSET -0.181677 26.311296 -0.553349
					CHANNELS 3 Zrotation Yrotation Xrotation
					JOINT Neck2
					{
						OFFSET -0.000003 7.709397 2.302586
						CHANNELS 3 Zrotation Yrotation Xrotation
						JOINT Head
						{
							OFFSET -0.000005 6.128914 1.953709
							CHANNELS 3 Zrotation Yrotation Xrotation
							JOINT HeadEnd
							{
								OFFSET 0.003598 16.065401 -1.835379
								CHANNELS 3 Zrotation Yrotation Xrotation
								End Site
								{
									OFFSET 0.000000 0.000000 0.000000
								}
							}
							JOINT Jaw
							{
								OFFSET 0.002637 0.475591 3.094941
								CHANNELS 3 Zrotation Yrotation Xrotation
								End Site
								{
									OFFSET 0.000000 0.000000 0.000000
								}
							}
							JOINT LeftEye
							{
								OFFSET 3.206381 5.380208 7.586883
								CHANNELS 3 Zrotation Yrotation Xrotation
								End Site
								{
									OFFSET 0.000000 0.000000 0.000000
								}
							}
							JOINT RightEye
							{
								OFFSET -3.222440 5.361867 7.558234
								CHANNELS 3 Zrotation Yrotation Xrotation
								End Site
								{
									OFFSET 0.000000 0.000000 0.000000
								}
							}
						}
					}
				}
				JOINT LeftShoulder
				{
					OFFSET 1.621652 23.237164 5.113413
					CHANNELS 3 Zrotation Yrotation Xrotation
					JOINT LeftArm
					{
						OFFSET 14.919845 -0.000000 -5.502326
						CHANNELS 3 Zrotation Yrotation Xrotation
						JOINT LeftForeArm
						{
							OFFSET 28.739313 0.000002 -0.002587
							CHANNELS 3 Zrotation Yrotation Xrotation
							JOINT LeftHand
							{
								OFFSET 27.093979 -0.000002 0.002609
								CHANNELS 3 Zrotation Yrotation Xrotation
								JOINT LeftHandThumb1
								{
									OFFSET 2.276480 -1.392045 3.191413
									CHANNELS 3 Zrotation Yrotation Xrotation
									JOINT LeftHandThumb2
									{
										OFFSET 4.012840 -1.828127 1.641654
										CHANNELS 3 Zrotation Yrotation Xrotation
										JOINT LeftHandThumb3
										{
											OFFSET 2.798516 0.000003 -0.000003
											CHANNELS 3 Zrotation Yrotation Xrotation
											JOINT LeftHandThumbEnd
											{
												OFFSET 3.180791 -0.000001 0.000003
												CHANNELS 3 Zrotation Yrotation Xrotation
												End Site
												{
													OFFSET 0.000000 0.000000 0.000000
												}
											}
										}
									}
								}
								JOINT LeftHandIndex1
								{
									OFFSET 3.247553 -0.531999 2.296168
									CHANNELS 3 Zrotation Yrotation Xrotation
									JOINT LeftHandIndex2
									{
										OFFSET 6.364580 0.012063 0.178600
										CHANNELS 3 Zrotation Yrotation Xrotation
										JOINT LeftHandIndex3
										{
											OFFSET 3.662366 0.000001 0.000000
											CHANNELS 3 Zrotation Yrotation Xrotation
											JOINT LeftHandIndex4
											{
												OFFSET 2.329242 0.000003 0.000004
												CHANNELS 3 Zrotation Yrotation Xrotation
												JOINT LeftHandIndexEnd
												{
													OFFSET 2.759619 -0.180540 -0.113024
													CHANNELS 3 Zrotation Yrotation Xrotation
													End Site
													{
														OFFSET 0.000000 0.000000 0.000000
													}
												}
											}
										}
									}
								}
								JOINT LeftHandMiddle1
								{
									OFFSET 3.163499 0.240982 1.000332
									CHANNELS 3 Zrotation Yrotation Xrotation
									JOINT LeftHandMiddle2
									{
										OFFSET 6.190777 -0.259276 -1.002549
										CHANNELS 3 Zrotation Yrotation Xrotation
										JOINT LeftHandMiddle3
										{
											OFFSET 4.356522 -0.000006 -0.000000
											CHANNELS 3 Zrotation Yrotation Xrotation
											JOINT LeftHandMiddle4
											{
												OFFSET 2.996875 -0.000006 0.000001
												CHANNELS 3 Zrotation Yrotation Xrotation
												JOINT LeftHandMiddleEnd
												{
													OFFSET 2.304294 -0.294571 -0.031740
													CHANNELS 3 Zrotation Yrotation Xrotation
													End Site
													{
														OFFSET 0.000000 0.000000 0.000000
													}
												}
											}
										}
									}
								}
								JOINT LeftHandRing1
								{
									OFFSET 2.882642 -0.053650 -0.322542
									CHANNELS 3 Zrotation Yrotation Xrotation
									JOINT LeftHandRing2
									{
										OFFSET 5.854542 -0.486204 -1.373841
										CHANNELS 3 Zrotation Yrotation Xrotation
										JOINT LeftHandRing3
										{
											OFFSET 4.350580 -0.000000 0.000003
											CHANNELS 3 Zrotation Yrotation Xrotation
											JOINT LeftHandRing4
											{
												OFFSET 2.651325 0.000008 0.000001
												CHANNELS 3 Zrotation Yrotation Xrotation
												JOINT LeftHandRingEnd
												{
													OFFSET 1.936111 0.077684 -0.000070
													CHANNELS 3 Zrotation Yrotation Xrotation
													End Site
													{
														OFFSET 0.000000 0.000000 0.000000
													}
												}
											}
										}
									}
								}
								JOINT LeftHandPinky1
								{
									OFFSET 2.865499 -0.310004 -1.600378
									CHANNELS 3 Zrotation Yrotation Xrotation
									JOINT LeftHandPinky2
									{
										OFFSET 5.087852 -1.331142 -1.771231
										CHANNELS 3 Zrotation Yrotation Xrotation
										JOINT LeftHandPinky3
										{
											OFFSET 3.070975 0.000003 0.000000
											CHANNELS 3 Zrotation Yrotation Xrotation
											JOINT LeftHandPinky4
											{
												OFFSET 1.549668 -0.000000 0.000001
												CHANNELS 3 Zrotation Yrotation Xrotation
												JOINT LeftHandPinkyEnd
												{
													OFFSET 1.944895 -0.157802 0.057219
													CHANNELS 3 Zrotation Yrotation Xrotation
													End Site
													{
														OFFSET 0.000000 0.000000 0.000000
													}
												}
											}
										}
									}
								}
							}
						}
					}
				}
				JOINT RightShoulder
				{
					OFFSET -1.380118 23.180309 5.214158
					CHANNELS 3 Zrotation Yrotation Xrotation
					JOINT RightArm
					{
						OFFSET -15.037197 0.000011 -5.545604
						CHANNELS 3 Zrotation Yrotation Xrotation
						JOINT RightForeArm
						{
							OFFSET -28.736639 0.000003 -0.002597
							CHANNELS 3 Zrotation Yrotation Xrotation
							JOINT RightHand
							{
								OFFSET -27.133619 -0.000001 0.002612
								CHANNELS 3 Zrotation Yrotation Xrotation
								JOINT RightHandThumb1
								{
									OFFSET -2.274037 -1.383991 3.163128
									CHANNELS 3 Zrotation Yrotation Xrotation
									JOINT RightHandThumb2
									{
										OFFSET -4.011429 -1.827468 1.640915
										CHANNELS 3 Zrotation Yrotation Xrotation
										JOINT RightHandThumb3
										{
											OFFSET -2.794934 -0.000005 -0.000004
											CHANNELS 3 Zrotation Yrotation Xrotation
											JOINT RightHandThumbEnd
											{
												OFFSET -3.183855 0.000003 -0.000000
												CHANNELS 3 Zrotation Yrotation Xrotation
												End Site
												{
													OFFSET 0.000000 0.000000 0.000000
												}
											}
										}
									}
								}
								JOINT RightHandIndex1
								{
									OFFSET -3.253270 -0.520059 2.282866
									CHANNELS 3 Zrotation Yrotation Xrotation
									JOINT RightHandIndex2
									{
										OFFSET -6.341918 0.012473 0.178265
										CHANNELS 3 Zrotation Yrotation Xrotation
										JOINT RightHandIndex3
										{
											OFFSET -3.654875 -0.000009 -0.000001
											CHANNELS 3 Zrotation Yrotation Xrotation
											JOINT RightHandIndex4
											{
												OFFSET -2.327587 -0.000000 0.000001
												CHANNELS 3 Zrotation Yrotation Xrotation
												JOINT RightHandIndexEnd
												{
													OFFSET -2.761789 -0.180657 -0.113078
													CHANNELS 3 Zrotation Yrotation Xrotation
													End Site
													{
														OFFSET 0.000000 0.000000 0.000000
													}
												}
											}
										}
									}
								}
								JOINT RightHandMiddle1
								{
									OFFSET -3.168106 0.246593 1.001030
									CHANNELS 3 Zrotation Yrotation Xrotation
									JOINT RightHandMiddle2
									{
										OFFSET -6.180830 -0.258836 -1.000896
										CHANNELS 3 Zrotation Yrotation Xrotation
										JOINT RightHandMiddle3
										{
											OFFSET -4.348906 0.000000 0.000000
											CHANNELS 3 Zrotation Yrotation Xrotation
											JOINT RightHandMiddle4
											{
												OFFSET -3.000242 -0.000004 -0.000002
												CHANNELS 3 Zrotation Yrotation Xrotation
												JOINT RightHandMiddleEnd
												{
													OFFSET -2.302518 -0.294372 -0.031706
													CHANNELS 3 Zrotation Yrotation Xrotation
													End Site
													{
														OFFSET 0.000000 0.000000 0.000000
													}
												}
											}
										}
									}
								}
								JOINT RightHandRing1
								{
									OFFSET -2.885693 -0.067952 -0.308858
									CHANNELS 3 Zrotation Yrotation Xrotation
									JOINT RightHandRing2
									{
										OFFSET -5.854197 -0.486132 -1.373732
										CHANNELS 3 Zrotation Yrotation Xrotation
										JOINT RightHandRing3
										{
											OFFSET -4.338814 -0.000004 -0.000000
											CHANNELS 3 Zrotation Yrotation Xrotation
											JOINT RightHandRing4
											{
												OFFSET -2.654906 -0.000003 0.000003
												CHANNELS 3 Zrotation Yrotation Xrotation
												JOINT RightHandRingEnd
												{
													OFFSET -1.933571 0.077524 -0.000052
													CHANNELS 3 Zrotation Yrotation Xrotation
													End Site
													{
														OFFSET 0.000000 0.000000 0.000000
													}
												}
											}
										}
									}
								}
								JOINT RightHandPinky1
								{
									OFFSET -2.866430 -0.342798 -1.584145
									CHANNELS 3 Zrotation Yrotation Xrotation
									JOINT RightHandPinky2
									{
										OFFSET -5.091369 -1.332054 -1.772385
										CHANNELS 3 Zrotation Yrotation Xrotation
										JOINT RightHandPinky3
										{
											OFFSET -3.062667 -0.000006 0.000001
											CHANNELS 3 Zrotation Yrotation Xrotation
											JOINT RightHandPinky4
											{
												OFFSET -1.546526 0.000005 -0.000002
												CHANNELS 3 Zrotation Yrotation Xrotation
												JOINT RightHandPinkyEnd
												{
													OFFSET -1.945122 -0.157721 0.057211
													CHANNELS 3 Zrotation Yrotation Xrotation
													End Site
													{
														OFFSET 0.000000 0.000000 0.000000
													}
												}
											}
										}
									}
								}
							}
						}
					}
				}
			}
		}
	}
	JOINT LeftLeg
	{
		OFFSET 10.043214 -8.434526 2.595655
		CHANNELS 3 Zrotation Yrotation Xrotation
		JOINT LeftShin
		{
			OFFSET -0.000002 -43.221752 -0.802913
			CHANNELS 3 Zrotation Yrotation Xrotation
			JOINT LeftFoot
			{
				OFFSET 0.000001 -42.155094 -3.481523
				CHANNELS 3 Zrotation Yrotation Xrotation
				JOINT LeftToeBase
				{
					OFFSET 0.000000 -5.059474 13.231529
					CHANNELS 3 Zrotation Yrotation Xrotation
					JOINT LeftToeEnd
					{
						OFFSET -0.009607 -1.647615 6.513017
						CHANNELS 3 Zrotation Yrotation Xrotation
						End Site
						{
							OFFSET 0.000000 0.000000 0.000000
						}
					}
				}
			}
		}
	}
	JOINT RightLeg
	{
		OFFSET -10.047277 -8.295259 2.620317
		CHANNELS 3 Zrotation Yrotation Xrotation
		JOINT RightShin
		{
			OFFSET 0.000000 -43.362213 -0.805555
			CHANNELS 3 Zrotation Yrotation Xrotation
			JOINT RightFoot
			{
				OFFSET 0.000003 -42.117393 -3.478399
				CHANNELS 3 Zrotation Yrotation Xrotation
				JOINT RightToeBase
				{
					OFFSET -0.000001 -5.079609 13.284196
					CHANNELS 3 Zrotation Yrotation Xrotation
					JOINT RightToeEnd
					{
						OFFSET 0.009532 -1.634383 6.460591
						CHANNELS 3 Zrotation Yrotation Xrotation
						End Site
						{
							OFFSET 0.000000 0.000000 0.000000
						}
					}
				}
			}
		}
	}
}
MOTION
Frames: 5
Frame Time: 0.033333
1.804483 87.076752 -0.556880 -2.797951 19.047743 -5.293552 -0.877179 1.070742 8.574569 -0.896759 2.587845 -1.135230 -0.747733 1.596123 12.749200 16.471268 -6.607845 14.822531 -4.433529 -11.929072 -3.261236 2.195266 -15.021053 -2.432621 0.000077 -0.000022 0.000006 0.022975 -0.058842 -0.041059 0.764102 -3.782268 -10.704246 -0.732165 3.682156 -10.694927 -4.577401 -3.129110 9.772459 -55.980331 -23.978573 14.042043 178.983429 -55.087753 -179.165375 5.388060 4.659393 38.461185 -5.882101 9.861278 0.702589 -10.936860 -0.360576 7.156198 0.000001 8.774813 -0.000002 -15.794779 17.471809 6.190122 -1.844031 2.498503 -2.507276 -10.163590 4.678939 4.621106 -20.975994 -0.000003 0.000003 -21.226255 2.451692 -3.593993 0.000002 -0.000006 0.000000 -1.362680 2.240795 -0.746323 -21.334892 0.584908 3.008322 -13.821197 -0.000003 0.000004 -23.887135 -0.249079 -0.839478 -59.517986 2.363442 -0.972217 -0.294024 1.679687 0.833255 -14.218194 0.093214 1.300579 -34.212002 -0.287564 0.967173 -20.033180 0.964535 1.212844 0.000000 0.000001 0.000000 -3.440387 0.788232 0.501656 -15.928167 -3.167307 2.999705 -6.338816 -0.000001 0.000002 -18.123413 3.648176 -4.905658 -0.000003 0.000000 -0.000000 8.039273 19.712448 8.834519 49.814308 20.106962 -40.828617 178.012253 79.217590 178.838669 -46.197319 0.470854 -19.939085 2.243540 -5.255034 -3.180154 14.282875 -0.826593 6.952496 -0.000002 -12.690592 0.000001 16.059309 -17.054405 2.843283 1.665666 -1.955921 -2.878296 4.727794 -4.170584 4.993919 11.020512 0.000004 -0.000001 12.109031 -3.735708 -2.866780 0.000000 0.000000 0.000000 1.291985 -1.928547 -1.498088 14.800109 0.567468 3.865603 14.242551 -1.341734 -6.660650 19.631937 0.143928 -0.648245 51.207817 -0.690065 -6.068859 0.353028 -1.511150 -0.031940 20.222771 3.684307 2.316628 18.787245 0.000006 0.000000 10.751610 -0.479869 1.397904 0.000000 0.000001 0.000000 3.273804 0.305947 -0.580110 21.486788 11.830365 2.266128 8.162916 0.000001 -0.000001 18.399055 -3.798977 -4.940569 0.000003 -0.000001 -0.000001 23.477201 21.742826 -18.948561 -0.492071 -0.752983 54.190182 -19.550287 -8.343924 -21.565590 1.610969 -1.954962 -0.144840 0.000000 0.000001 0.000002 -17.712250 -40.189083 -26.142698 0.626677 0.632552 47.828560 13.700441 -14.904541 -4.237714 -1.434333 0.895502 1.272014 0.000000 0.000000 -0.000001 
1.453801 87.206802 -0.278913 -2.493456 17.685047 -5.113262 -0.938170 0.965442 8.512903 -0.923184 2.274144 -1.165253 -0.731143 1.124505 12.536695 15.956473 -6.133492 14.479754 -4.405155 -11.784157 -3.256876 2.218503 -14.761112 -3.045437 0.000077 -0.000022 0.000004 0.020068 -0.051738 -0.035769 0.756880 -3.775594 -10.673699 -0.733243 3.687032 -10.669089 -4.398448 -3.062528 9.830477 -56.654278 -22.432226 13.326547 179.546021 -54.796333 -179.559753 5.277607 4.752025 38.855354 -5.882099 9.861278 0.702589 -10.936858 -0.360578 7.156197 0.000002 8.774813 -0.000002 -15.800578 17.469412 6.146159 -1.844030 2.498503 -2.507277 -10.163589 4.678938 4.621104 -20.975994 -0.000006 0.000002 -21.226254 2.451690 -3.593992 0.000001 -0.000007 -0.000000 -1.362679 2.240796 -0.746322 -21.334888 0.584904 3.008321 -13.821193 -0.000004 0.000003 -23.887129 -0.249082 -0.839475 -59.530380 2.377983 -1.016533 -0.294024 1.679685 0.833254 -14.218190 0.093214 1.300579 -34.211998 -0.287568 0.967171 -20.033178 0.964532 1.212845 0.000002 0.000001 0.000001 -3.440385 0.788232 0.501655 -15.928167 -3.167307 2.999703 -6.338817 -0.000002 0.000002 -18.123413 3.648172 -4.905659 -0.000003 0.000000 -0.000001 9.224345 18.494392 9.286884 50.370792 16.367594 -42.569031 177.198074 80.343636 178.021790 -46.422314 -0.523230 -15.834271 2.243540 -5.255033 -3.180156 14.282877 -0.826596 6.952496 -0.000003 -12.690588 -0.000000 15.779478 -17.164009 3.120949 1.665665 -1.955920 -2.878298 4.727794 -4.170583 4.993917 11.020511 0.000003 -0.000002 12.109033 -3.735708 -2.866781 0.000000 -0.000001 -0.000000 1.291984 -1.928548 -1.498088 14.800109 0.567468 3.865604 14.242553 -1.341734 -6.660649 19.631937 0.143926 -0.648243 51.479023 -0.674847 -6.158907 0.353027 -1.511150 -0.031940 20.222765 3.684307 2.316628 18.787245 0.000005 0.000001 10.751610 -0.479867 1.397905 0.000000 0.000001 0.000000 3.273805 0.305946 -0.580110 21.486790 11.830360 2.266131 8.162916 0.000001 -0.000000 18.399052 -3.798979 -4.940567 0.000003 0.000000 -0.000000 23.747660 22.367266 -17.797588 -0.511201 -0.774806 53.347027 -20.081642 -7.822678 -21.355078 1.615020 -1.976587 -0.242109 0.000000 -0.000000 0.000002 -17.082918 -39.581600 -26.960966 0.599476 0.590915 48.039696 13.536274 -14.409968 -4.558761 -1.432760 0.913551 1.276322 0.000000 0.000001 -0.000001 
1.060435 87.299911 -0.009962 -2.177267 16.100546 -4.905615 -0.979420 0.860863 8.481598 -0.935097 1.979776 -1.183839 -0.659190 0.648035 12.314748 15.369663 -5.613159 14.047399 -4.334250 -11.694112 -3.244548 2.113769 -14.437237 -3.616935 0.000077 -0.000022 0.000004 0.016079 -0.051606 -0.036066 0.755302 -3.777721 -10.656281 -0.739681 3.685583 -10.636441 -4.185484 -3.015059 9.861292 -57.289795 -20.997667 12.486129 -179.701874 -54.508266 179.855713 5.137587 4.847749 38.955036 -5.882101 9.861278 0.702592 -10.936858 -0.360575 7.156196 0.000000 8.774812 -0.000002 -15.771382 17.535141 6.134914 -1.844030 2.498502 -2.507275 -10.163589 4.678937 4.621102 -20.975992 -0.000003 0.000001 -21.226248 2.451691 -3.593994 0.000000 -0.000006 -0.000000 -1.362679 2.240797 -0.746325 -21.334887 0.584908 3.008319 -13.821192 -0.000002 0.000003 -23.887129 -0.249080 -0.839483 -59.585106 2.395184 -1.070504 -0.294024 1.679686 0.833256 -14.218192 0.093214 1.300578 -34.212002 -0.287565 0.967167 -20.033175 0.964536 1.212840 0.000003 -0.000000 -0.000000 -3.440384 0.788232 0.501653 -15.928167 -3.167305 2.999702 -6.338816 0.000000 0.000000 -18.123411 3.648175 -4.905662 -0.000003 -0.000000 -0.000003 10.178892 17.391729 9.676908 50.739075 13.241370 -44.207455 177.153503 82.238731 177.847412 -45.915310 -1.372142 -12.879124 2.243540 -5.255030 -3.180156 14.282877 -0.826594 6.952497 -0.000003 -12.690590 -0.000000 15.507862 -17.157522 3.274128 1.665665 -1.955920 -2.878296 4.727795 -4.170585 4.993918 11.020511 0.000003 0.000000 12.109033 -3.735709 -2.866778 0.000000 -0.000001 -0.000000 1.291983 -1.928547 -1.498088 14.800114 0.567466 3.865603 14.242553 -1.341733 -6.660647 19.631939 0.143924 -0.648243 51.320732 -0.645902 -6.271257 0.353028 -1.511148 -0.031939 20.222769 3.684305 2.316628 18.787245 0.000005 0.000000 10.751610 -0.479867 1.397903 0.000001 -0.000000 0.000002 3.273805 0.305947 -0.580110 21.486794 11.830363 2.266131 8.162918 -0.000002 -0.000001 18.399054 -3.798980 -4.940567 0.000003 0.000000 0.000000 24.039045 23.051828 -16.575062 -0.500066 -0.817462 52.512451 -20.605591 -7.163156 -21.241970 1.621160 -1.996674 -0.340955 -0.000000 -0.000001 0.000002 -16.353821 -38.947792 -28.007580 0.583061 0.530990 48.403130 13.249622 -13.739183 -4.748774 -1.430953 0.915926 1.263292 0.000000 0.000000 -0.000001 
0.676051 87.364700 0.275749 -1.877715 14.424400 -4.686718 -0.994927 0.755325 8.469197 -0.939841 1.673806 -1.212161 -0.530846 0.251695 12.122524 14.837390 -5.154895 13.631275 -4.291522 -11.584518 -3.241695 1.973805 -14.165270 -4.093859 0.000077 -0.000023 0.000006 0.011139 -0.045080 -0.024661 0.753127 -3.768692 -10.628601 -0.745250 3.686862 -10.602696 -3.954362 -3.043506 9.956251 -57.800488 -19.825111 11.693280 -179.087845 -54.311150 179.306976 5.008372 4.937514 38.881405 -5.882099 9.861276 0.702590 -10.936858 -0.360576 7.156198 0.000002 8.774814 -0.000002 -15.790277 17.616400 6.106546 -1.844031 2.498503 -2.507276 -10.163589 4.678939 4.621105 -20.975992 -0.000007 0.000004 -21.226248 2.451690 -3.593991 0.000000 -0.000006 -0.000001 -1.362680 2.240795 -0.746325 -21.334887 0.584905 3.008322 -13.821194 -0.000006 0.000004 -23.887125 -0.249081 -0.839479 -59.585495 2.424177 -1.096727 -0.294024 1.679687 0.833255 -14.218190 0.093213 1.300580 -34.212006 -0.287569 0.967174 -20.033175 0.964535 1.212847 0.000002 0.000000 0.000000 -3.440384 0.788231 0.501654 -15.928167 -3.167309 2.999706 -6.338816 -0.000002 0.000002 -18.123411 3.648174 -4.905661 -0.000003 0.000002 -0.000003 10.849300 16.458408 9.895079 50.907898 10.860441 -45.639778 176.275177 84.678360 176.792664 -45.057667 -1.963153 -11.012820 2.243541 -5.255033 -3.180155 14.282877 -0.826592 6.952494 -0.000003 -12.690590 0.000000 15.422447 -17.097324 3.270094 1.665666 -1.955920 -2.878297 4.727792 -4.170584 4.993918 11.020513 0.000002 -0.000003 12.109033 -3.735710 -2.866781 0.000000 0.000000 -0.000001 1.291986 -1.928549 -1.498088 14.800111 0.567468 3.865602 14.242553 -1.341735 -6.660648 19.631939 0.143926 -0.648246 50.990849 -0.614860 -6.353160 0.353027 -1.511150 -0.031941 20.222773 3.684304 2.316627 18.787247 0.000006 -0.000002 10.751612 -0.479867 1.397905 0.000001 0.000002 0.000001 3.273803 0.305946 -0.580110 21.486790 11.830361 2.266129 8.162916 0.000000 -0.000002 18.399052 -3.798977 -4.940570 0.000003 0.000001 -0.000003 24.459354 23.664698 -15.299633 -0.495573 -0.862699 51.688236 -21.159395 -6.418326 -20.977913 1.625830 -1.986211 -0.386150 0.000000 -0.000001 0.000002 -15.570648 -38.294407 -29.166258 0.543866 0.495343 48.859577 12.852879 -12.991353 -4.845795 -1.428744 0.912740 1.243607 0.000000 0.000001 -0.000001 
0.289968 87.411026 0.533744 -1.582000 12.656515 -4.456993 -0.986938 0.629850 8.460393 -0.942855 1.381934 -1.237400 -0.365285 -0.122701 11.941648 14.374491 -4.802571 13.263331 -4.234151 -11.445169 -3.244803 1.753690 -13.891244 -4.488142 0.000077 -0.000023 0.000006 0.014004 -0.056902 -0.012248 0.754976 -3.773243 -10.614207 -0.741331 3.677560 -10.599200 -3.714149 -3.100878 10.063230 -58.219715 -18.913488 10.869809 -178.480148 -54.170250 178.739304 4.899650 5.042621 38.617104 -5.882102 9.861280 0.702590 -10.936858 -0.360574 7.156197 0.000000 8.774817 -0.000001 -15.811711 17.708319 6.100492 -1.844031 2.498501 -2.507277 -10.163589 4.678940 4.621105 -20.975996 -0.000003 0.000004 -21.226257 2.451693 -3.593994 0.000002 -0.000006 -0.000000 -1.362680 2.240797 -0.746324 -21.334892 0.584908 3.008320 -13.821197 -0.000002 0.000005 -23.887131 -0.249078 -0.839481 -59.632595 2.445099 -1.077420 -0.294024 1.679686 0.833256 -14.218194 0.093216 1.300581 -34.212006 -0.287564 0.967171 -20.033178 0.964536 1.212841 0.000002 0.000001 0.000002 -3.440386 0.788233 0.501655 -15.928167 -3.167305 2.999704 -6.338817 -0.000001 0.000001 -18.123413 3.648179 -4.905661 -0.000003 0.000001 -0.000001 11.305314 15.720062 10.054499 50.991982 9.171991 -46.768475 172.990753 87.292740 173.264893 -44.070797 -2.209586 -9.898347 2.243539 -5.255032 -3.180155 14.282878 -0.826591 6.952497 -0.000003 -12.690592 -0.000000 15.458426 -16.930914 3.162447 1.665665 -1.955919 -2.878296 4.727794 -4.170583 4.993918 11.020512 0.000003 0.000001 12.109034 -3.735710 -2.866779 -0.000000 0.000000 -0.000000 1.291983 -1.928548 -1.498088 14.800114 0.567469 3.865604 14.242553 -1.341734 -6.660648 19.631939 0.143925 -0.648242 50.587631 -0.570711 -6.372591 0.353028 -1.511149 -0.031939 20.222767 3.684307 2.316629 18.787245 0.000004 -0.000000 10.751611 -0.479867 1.397904 -0.000000 0.000000 0.000000 3.273803 0.305947 -0.580110 21.486795 11.830363 2.266135 8.162919 0.000003 -0.000000 18.399054 -3.798978 -4.940566 0.000003 -0.000001 -0.000000 24.767952 24.252140 -14.027562 -0.483067 -0.903228 50.864426 -21.597353 -5.584233 -20.999210 1.631898 -1.955341 -0.405983 0.000000 0.000000 0.000002 -14.748342 -37.618294 -30.365374 0.534654 0.453569 49.299122 12.356790 -12.233949 -4.994717 -1.426884 0.909916 1.222641 0.000000 0.000001 -0.000001 
